<svg width="44" height="47" viewBox="0 0 44 46.3127" fill="none" xmlns="http://www.w3.org/2000/svg">
<g id="fingerprint" filter="url(#filter0_d_0_4)">
<mask id="mask0_0_4" style="mask-type:alpha" maskUnits="userSpaceOnUse" x="-2" y="-2" width="48" height="48">
<rect x="-1" y="-1" width="46" height="46" fill="#F0F427" stroke="black" stroke-width="2"/>
</mask>
<g mask="url(#mask0_0_4)">
<g>
<mask id="path-2-outside-1_0_4" maskUnits="userSpaceOnUse" x="2.5555" y="1.71232" width="39" height="41" fill="black">
<rect fill="white" x="2.5555" y="1.71232" width="39" height="41"/>
<path d="M22.0463 8.20399C25.2852 8.20399 28.3408 8.89913 31.213 10.2894C34.0852 11.6797 36.4838 13.6887 38.4088 16.3165C38.6227 16.5915 38.6915 16.8359 38.6151 17.0498C38.5387 17.2637 38.4088 17.447 38.2255 17.5998C38.0422 17.7526 37.8283 17.8213 37.5838 17.8061C37.3394 17.7908 37.1255 17.6609 36.9422 17.4165C35.2616 15.0332 33.0998 13.2075 30.4568 11.9394C27.8137 10.6713 25.0102 10.0373 22.0463 10.0373C19.0824 10.0373 16.3019 10.6713 13.7047 11.9394C11.1074 13.2075 8.95328 15.0332 7.24217 17.4165C7.05883 17.6915 6.84495 17.8443 6.6005 17.8748C6.35606 17.9054 6.14217 17.8443 5.95883 17.6915C5.74495 17.5387 5.61508 17.3477 5.56925 17.1186C5.52342 16.8894 5.59217 16.6526 5.7755 16.4082C7.66995 13.8109 10.0456 11.7943 12.9026 10.3582C15.7595 8.92204 18.8074 8.20399 22.0463 8.20399ZM22.0463 12.5123C26.1713 12.5123 29.7158 13.8873 32.6797 16.6373C35.6436 19.3873 37.1255 22.7943 37.1255 26.8582C37.1255 28.3859 36.5831 29.6616 35.4984 30.6852C34.4137 31.7089 33.0922 32.2207 31.5338 32.2207C29.9755 32.2207 28.6387 31.7089 27.5234 30.6852C26.4081 29.6616 25.8505 28.3859 25.8505 26.8582C25.8505 25.8498 25.4762 25.0019 24.7276 24.3144C23.979 23.6269 23.0852 23.2832 22.0463 23.2832C21.0074 23.2832 20.1137 23.6269 19.3651 24.3144C18.6165 25.0019 18.2422 25.8498 18.2422 26.8582C18.2422 29.822 19.1206 32.297 20.8776 34.2832C22.6345 36.2693 24.9033 37.6595 27.6838 38.454C27.9588 38.5457 28.1422 38.6984 28.2338 38.9123C28.3255 39.1262 28.3408 39.3554 28.2797 39.5998C28.2186 39.8137 28.0963 39.997 27.913 40.1498C27.7297 40.3026 27.5005 40.3484 27.2255 40.2873C24.0477 39.4929 21.4505 37.9116 19.4338 35.5436C17.4172 33.1755 16.4088 30.2804 16.4088 26.8582C16.4088 25.3304 16.9588 24.047 18.0588 23.0082C19.1588 21.9693 20.488 21.4498 22.0463 21.4498C23.6047 21.4498 24.9338 21.9693 26.0338 23.0082C27.1338 24.047 27.6838 25.3304 27.6838 26.8582C27.6838 27.8665 28.0658 28.7144 28.8297 29.4019C29.5936 30.0894 30.4949 30.4332 31.5338 30.4332C32.5727 30.4332 33.4588 30.0894 34.1922 29.4019C34.9255 28.7144 35.2922 27.8665 35.2922 26.8582C35.2922 23.3137 33.9936 20.3345 31.3963 17.9207C28.7991 15.5068 25.6977 14.2998 22.0922 14.2998C18.4866 14.2998 15.3852 15.5068 12.788 17.9207C10.1908 20.3345 8.89217 23.2984 8.89217 26.8123C8.89217 27.5457 8.96092 28.4623 9.09842 29.5623C9.23592 30.6623 9.56439 31.9457 10.0838 33.4123C10.1755 33.6873 10.1679 33.9318 10.0609 34.1457C9.95397 34.3595 9.77828 34.5123 9.53384 34.604C9.28939 34.6957 9.05259 34.688 8.82342 34.5811C8.59425 34.4741 8.43383 34.2984 8.34217 34.054C7.88383 32.8623 7.55536 31.6783 7.35675 30.5019C7.15814 29.3255 7.05883 28.1109 7.05883 26.8582C7.05883 22.7943 8.53314 19.3873 11.4818 16.6373C14.4304 13.8873 17.9519 12.5123 22.0463 12.5123ZM22.0463 3.71232C24.0019 3.71232 25.9116 3.94913 27.7755 4.42274C29.6394 4.89635 31.4422 5.57621 33.1838 6.46232C33.4588 6.6151 33.6193 6.79843 33.6651 7.01232C33.7109 7.22621 33.688 7.4401 33.5963 7.65399C33.5047 7.86788 33.3519 8.03593 33.138 8.15815C32.9241 8.28038 32.6644 8.2651 32.3588 8.11232C30.7394 7.28732 29.0665 6.65329 27.3401 6.21024C25.6137 5.76718 23.8491 5.54565 22.0463 5.54565C20.2741 5.54565 18.5324 5.7519 16.8213 6.1644C15.1102 6.5769 13.4755 7.22621 11.9172 8.11232C11.6727 8.2651 11.4283 8.30329 11.1838 8.2269C10.9394 8.15052 10.7561 7.9901 10.6338 7.74565C10.5116 7.50121 10.4811 7.27968 10.5422 7.08107C10.6033 6.88246 10.7561 6.70677 11.0005 6.55399C12.7116 5.63732 14.4991 4.93454 16.363 4.44565C18.2269 3.95677 20.1213 3.71232 22.0463 3.71232ZM22.0463 16.9582C24.888 16.9582 27.3324 17.913 29.3797 19.8227C31.4269 21.7325 32.4505 24.0776 32.4505 26.8582C32.4505 27.1332 32.3665 27.3547 32.1984 27.5227C32.0304 27.6908 31.8088 27.7748 31.5338 27.7748C31.2894 27.7748 31.0755 27.6908 30.8922 27.5227C30.7088 27.3547 30.6172 27.1332 30.6172 26.8582C30.6172 24.5665 29.7693 22.6491 28.0734 21.1061C26.3776 19.563 24.3686 18.7915 22.0463 18.7915C19.7241 18.7915 17.7304 19.563 16.0651 21.1061C14.3998 22.6491 13.5672 24.5665 13.5672 26.8582C13.5672 29.3332 13.9949 31.4338 14.8505 33.1602C15.7061 34.8866 16.9588 36.6207 18.6088 38.3623C18.7922 38.5457 18.8838 38.7595 18.8838 39.004C18.8838 39.2484 18.7922 39.4623 18.6088 39.6457C18.4255 39.829 18.2116 39.9207 17.9672 39.9207C17.7227 39.9207 17.5088 39.829 17.3255 39.6457C15.5227 37.7512 14.1401 35.8186 13.1776 33.8477C12.2151 31.8769 11.7338 29.547 11.7338 26.8582C11.7338 24.0776 12.7422 21.7325 14.7588 19.8227C16.7755 17.913 19.2047 16.9582 22.0463 16.9582ZM22.0005 25.9415C22.2755 25.9415 22.497 26.0332 22.6651 26.2165C22.8331 26.3998 22.9172 26.6137 22.9172 26.8582C22.9172 29.1498 23.7422 31.029 25.3922 32.4957C27.0422 33.9623 28.9672 34.6957 31.1672 34.6957C31.3505 34.6957 31.6102 34.6804 31.9463 34.6498C32.2824 34.6193 32.6338 34.5734 33.0005 34.5123C33.2755 34.4512 33.5123 34.4894 33.7109 34.6269C33.9095 34.7644 34.0394 34.9707 34.1005 35.2457C34.1616 35.4901 34.1158 35.704 33.963 35.8873C33.8102 36.0707 33.6116 36.1929 33.3672 36.254C32.8172 36.4068 32.3359 36.4908 31.9234 36.5061C31.5109 36.5214 31.2588 36.529 31.1672 36.529C28.4477 36.529 26.0873 35.6123 24.0859 33.779C22.0845 31.9457 21.0838 29.6387 21.0838 26.8582C21.0838 26.6137 21.1679 26.3998 21.3359 26.2165C21.504 26.0332 21.7255 25.9415 22.0005 25.9415Z"/>
</mask>
<path d="M22.0463 8.20399C25.2852 8.20399 28.3408 8.89913 31.213 10.2894C34.0852 11.6797 36.4838 13.6887 38.4088 16.3165C38.6227 16.5915 38.6915 16.8359 38.6151 17.0498C38.5387 17.2637 38.4088 17.447 38.2255 17.5998C38.0422 17.7526 37.8283 17.8213 37.5838 17.8061C37.3394 17.7908 37.1255 17.6609 36.9422 17.4165C35.2616 15.0332 33.0998 13.2075 30.4568 11.9394C27.8137 10.6713 25.0102 10.0373 22.0463 10.0373C19.0824 10.0373 16.3019 10.6713 13.7047 11.9394C11.1074 13.2075 8.95328 15.0332 7.24217 17.4165C7.05883 17.6915 6.84495 17.8443 6.6005 17.8748C6.35606 17.9054 6.14217 17.8443 5.95883 17.6915C5.74495 17.5387 5.61508 17.3477 5.56925 17.1186C5.52342 16.8894 5.59217 16.6526 5.7755 16.4082C7.66995 13.8109 10.0456 11.7943 12.9026 10.3582C15.7595 8.92204 18.8074 8.20399 22.0463 8.20399ZM22.0463 12.5123C26.1713 12.5123 29.7158 13.8873 32.6797 16.6373C35.6436 19.3873 37.1255 22.7943 37.1255 26.8582C37.1255 28.3859 36.5831 29.6616 35.4984 30.6852C34.4137 31.7089 33.0922 32.2207 31.5338 32.2207C29.9755 32.2207 28.6387 31.7089 27.5234 30.6852C26.4081 29.6616 25.8505 28.3859 25.8505 26.8582C25.8505 25.8498 25.4762 25.0019 24.7276 24.3144C23.979 23.6269 23.0852 23.2832 22.0463 23.2832C21.0074 23.2832 20.1137 23.6269 19.3651 24.3144C18.6165 25.0019 18.2422 25.8498 18.2422 26.8582C18.2422 29.822 19.1206 32.297 20.8776 34.2832C22.6345 36.2693 24.9033 37.6595 27.6838 38.454C27.9588 38.5457 28.1422 38.6984 28.2338 38.9123C28.3255 39.1262 28.3408 39.3554 28.2797 39.5998C28.2186 39.8137 28.0963 39.997 27.913 40.1498C27.7297 40.3026 27.5005 40.3484 27.2255 40.2873C24.0477 39.4929 21.4505 37.9116 19.4338 35.5436C17.4172 33.1755 16.4088 30.2804 16.4088 26.8582C16.4088 25.3304 16.9588 24.047 18.0588 23.0082C19.1588 21.9693 20.488 21.4498 22.0463 21.4498C23.6047 21.4498 24.9338 21.9693 26.0338 23.0082C27.1338 24.047 27.6838 25.3304 27.6838 26.8582C27.6838 27.8665 28.0658 28.7144 28.8297 29.4019C29.5936 30.0894 30.4949 30.4332 31.5338 30.4332C32.5727 30.4332 33.4588 30.0894 34.1922 29.4019C34.9255 28.7144 35.2922 27.8665 35.2922 26.8582C35.2922 23.3137 33.9936 20.3345 31.3963 17.9207C28.7991 15.5068 25.6977 14.2998 22.0922 14.2998C18.4866 14.2998 15.3852 15.5068 12.788 17.9207C10.1908 20.3345 8.89217 23.2984 8.89217 26.8123C8.89217 27.5457 8.96092 28.4623 9.09842 29.5623C9.23592 30.6623 9.56439 31.9457 10.0838 33.4123C10.1755 33.6873 10.1679 33.9318 10.0609 34.1457C9.95397 34.3595 9.77828 34.5123 9.53384 34.604C9.28939 34.6957 9.05259 34.688 8.82342 34.5811C8.59425 34.4741 8.43383 34.2984 8.34217 34.054C7.88383 32.8623 7.55536 31.6783 7.35675 30.5019C7.15814 29.3255 7.05883 28.1109 7.05883 26.8582C7.05883 22.7943 8.53314 19.3873 11.4818 16.6373C14.4304 13.8873 17.9519 12.5123 22.0463 12.5123ZM22.0463 3.71232C24.0019 3.71232 25.9116 3.94913 27.7755 4.42274C29.6394 4.89635 31.4422 5.57621 33.1838 6.46232C33.4588 6.6151 33.6193 6.79843 33.6651 7.01232C33.7109 7.22621 33.688 7.4401 33.5963 7.65399C33.5047 7.86788 33.3519 8.03593 33.138 8.15815C32.9241 8.28038 32.6644 8.2651 32.3588 8.11232C30.7394 7.28732 29.0665 6.65329 27.3401 6.21024C25.6137 5.76718 23.8491 5.54565 22.0463 5.54565C20.2741 5.54565 18.5324 5.7519 16.8213 6.1644C15.1102 6.5769 13.4755 7.22621 11.9172 8.11232C11.6727 8.2651 11.4283 8.30329 11.1838 8.2269C10.9394 8.15052 10.7561 7.9901 10.6338 7.74565C10.5116 7.50121 10.4811 7.27968 10.5422 7.08107C10.6033 6.88246 10.7561 6.70677 11.0005 6.55399C12.7116 5.63732 14.4991 4.93454 16.363 4.44565C18.2269 3.95677 20.1213 3.71232 22.0463 3.71232ZM22.0463 16.9582C24.888 16.9582 27.3324 17.913 29.3797 19.8227C31.4269 21.7325 32.4505 24.0776 32.4505 26.8582C32.4505 27.1332 32.3665 27.3547 32.1984 27.5227C32.0304 27.6908 31.8088 27.7748 31.5338 27.7748C31.2894 27.7748 31.0755 27.6908 30.8922 27.5227C30.7088 27.3547 30.6172 27.1332 30.6172 26.8582C30.6172 24.5665 29.7693 22.6491 28.0734 21.1061C26.3776 19.563 24.3686 18.7915 22.0463 18.7915C19.7241 18.7915 17.7304 19.563 16.0651 21.1061C14.3998 22.6491 13.5672 24.5665 13.5672 26.8582C13.5672 29.3332 13.9949 31.4338 14.8505 33.1602C15.7061 34.8866 16.9588 36.6207 18.6088 38.3623C18.7922 38.5457 18.8838 38.7595 18.8838 39.004C18.8838 39.2484 18.7922 39.4623 18.6088 39.6457C18.4255 39.829 18.2116 39.9207 17.9672 39.9207C17.7227 39.9207 17.5088 39.829 17.3255 39.6457C15.5227 37.7512 14.1401 35.8186 13.1776 33.8477C12.2151 31.8769 11.7338 29.547 11.7338 26.8582C11.7338 24.0776 12.7422 21.7325 14.7588 19.8227C16.7755 17.913 19.2047 16.9582 22.0463 16.9582ZM22.0005 25.9415C22.2755 25.9415 22.497 26.0332 22.6651 26.2165C22.8331 26.3998 22.9172 26.6137 22.9172 26.8582C22.9172 29.1498 23.7422 31.029 25.3922 32.4957C27.0422 33.9623 28.9672 34.6957 31.1672 34.6957C31.3505 34.6957 31.6102 34.6804 31.9463 34.6498C32.2824 34.6193 32.6338 34.5734 33.0005 34.5123C33.2755 34.4512 33.5123 34.4894 33.7109 34.6269C33.9095 34.7644 34.0394 34.9707 34.1005 35.2457C34.1616 35.4901 34.1158 35.704 33.963 35.8873C33.8102 36.0707 33.6116 36.1929 33.3672 36.254C32.8172 36.4068 32.3359 36.4908 31.9234 36.5061C31.5109 36.5214 31.2588 36.529 31.1672 36.529C28.4477 36.529 26.0873 35.6123 24.0859 33.779C22.0845 31.9457 21.0838 29.6387 21.0838 26.8582C21.0838 26.6137 21.1679 26.3998 21.3359 26.2165C21.504 26.0332 21.7255 25.9415 22.0005 25.9415Z" fill="#F0F427"/>
<path d="M22.0463 8.20399C25.2852 8.20399 28.3408 8.89913 31.213 10.2894C34.0852 11.6797 36.4838 13.6887 38.4088 16.3165C38.6227 16.5915 38.6915 16.8359 38.6151 17.0498C38.5387 17.2637 38.4088 17.447 38.2255 17.5998C38.0422 17.7526 37.8283 17.8213 37.5838 17.8061C37.3394 17.7908 37.1255 17.6609 36.9422 17.4165C35.2616 15.0332 33.0998 13.2075 30.4568 11.9394C27.8137 10.6713 25.0102 10.0373 22.0463 10.0373C19.0824 10.0373 16.3019 10.6713 13.7047 11.9394C11.1074 13.2075 8.95328 15.0332 7.24217 17.4165C7.05883 17.6915 6.84495 17.8443 6.6005 17.8748C6.35606 17.9054 6.14217 17.8443 5.95883 17.6915C5.74495 17.5387 5.61508 17.3477 5.56925 17.1186C5.52342 16.8894 5.59217 16.6526 5.7755 16.4082C7.66995 13.8109 10.0456 11.7943 12.9026 10.3582C15.7595 8.92204 18.8074 8.20399 22.0463 8.20399ZM22.0463 12.5123C26.1713 12.5123 29.7158 13.8873 32.6797 16.6373C35.6436 19.3873 37.1255 22.7943 37.1255 26.8582C37.1255 28.3859 36.5831 29.6616 35.4984 30.6852C34.4137 31.7089 33.0922 32.2207 31.5338 32.2207C29.9755 32.2207 28.6387 31.7089 27.5234 30.6852C26.4081 29.6616 25.8505 28.3859 25.8505 26.8582C25.8505 25.8498 25.4762 25.0019 24.7276 24.3144C23.979 23.6269 23.0852 23.2832 22.0463 23.2832C21.0074 23.2832 20.1137 23.6269 19.3651 24.3144C18.6165 25.0019 18.2422 25.8498 18.2422 26.8582C18.2422 29.822 19.1206 32.297 20.8776 34.2832C22.6345 36.2693 24.9033 37.6595 27.6838 38.454C27.9588 38.5457 28.1422 38.6984 28.2338 38.9123C28.3255 39.1262 28.3408 39.3554 28.2797 39.5998C28.2186 39.8137 28.0963 39.997 27.913 40.1498C27.7297 40.3026 27.5005 40.3484 27.2255 40.2873C24.0477 39.4929 21.4505 37.9116 19.4338 35.5436C17.4172 33.1755 16.4088 30.2804 16.4088 26.8582C16.4088 25.3304 16.9588 24.047 18.0588 23.0082C19.1588 21.9693 20.488 21.4498 22.0463 21.4498C23.6047 21.4498 24.9338 21.9693 26.0338 23.0082C27.1338 24.047 27.6838 25.3304 27.6838 26.8582C27.6838 27.8665 28.0658 28.7144 28.8297 29.4019C29.5936 30.0894 30.4949 30.4332 31.5338 30.4332C32.5727 30.4332 33.4588 30.0894 34.1922 29.4019C34.9255 28.7144 35.2922 27.8665 35.2922 26.8582C35.2922 23.3137 33.9936 20.3345 31.3963 17.9207C28.7991 15.5068 25.6977 14.2998 22.0922 14.2998C18.4866 14.2998 15.3852 15.5068 12.788 17.9207C10.1908 20.3345 8.89217 23.2984 8.89217 26.8123C8.89217 27.5457 8.96092 28.4623 9.09842 29.5623C9.23592 30.6623 9.56439 31.9457 10.0838 33.4123C10.1755 33.6873 10.1679 33.9318 10.0609 34.1457C9.95397 34.3595 9.77828 34.5123 9.53384 34.604C9.28939 34.6957 9.05259 34.688 8.82342 34.5811C8.59425 34.4741 8.43383 34.2984 8.34217 34.054C7.88383 32.8623 7.55536 31.6783 7.35675 30.5019C7.15814 29.3255 7.05883 28.1109 7.05883 26.8582C7.05883 22.7943 8.53314 19.3873 11.4818 16.6373C14.4304 13.8873 17.9519 12.5123 22.0463 12.5123ZM22.0463 3.71232C24.0019 3.71232 25.9116 3.94913 27.7755 4.42274C29.6394 4.89635 31.4422 5.57621 33.1838 6.46232C33.4588 6.6151 33.6193 6.79843 33.6651 7.01232C33.7109 7.22621 33.688 7.4401 33.5963 7.65399C33.5047 7.86788 33.3519 8.03593 33.138 8.15815C32.9241 8.28038 32.6644 8.2651 32.3588 8.11232C30.7394 7.28732 29.0665 6.65329 27.3401 6.21024C25.6137 5.76718 23.8491 5.54565 22.0463 5.54565C20.2741 5.54565 18.5324 5.7519 16.8213 6.1644C15.1102 6.5769 13.4755 7.22621 11.9172 8.11232C11.6727 8.2651 11.4283 8.30329 11.1838 8.2269C10.9394 8.15052 10.7561 7.9901 10.6338 7.74565C10.5116 7.50121 10.4811 7.27968 10.5422 7.08107C10.6033 6.88246 10.7561 6.70677 11.0005 6.55399C12.7116 5.63732 14.4991 4.93454 16.363 4.44565C18.2269 3.95677 20.1213 3.71232 22.0463 3.71232ZM22.0463 16.9582C24.888 16.9582 27.3324 17.913 29.3797 19.8227C31.4269 21.7325 32.4505 24.0776 32.4505 26.8582C32.4505 27.1332 32.3665 27.3547 32.1984 27.5227C32.0304 27.6908 31.8088 27.7748 31.5338 27.7748C31.2894 27.7748 31.0755 27.6908 30.8922 27.5227C30.7088 27.3547 30.6172 27.1332 30.6172 26.8582C30.6172 24.5665 29.7693 22.6491 28.0734 21.1061C26.3776 19.563 24.3686 18.7915 22.0463 18.7915C19.7241 18.7915 17.7304 19.563 16.0651 21.1061C14.3998 22.6491 13.5672 24.5665 13.5672 26.8582C13.5672 29.3332 13.9949 31.4338 14.8505 33.1602C15.7061 34.8866 16.9588 36.6207 18.6088 38.3623C18.7922 38.5457 18.8838 38.7595 18.8838 39.004C18.8838 39.2484 18.7922 39.4623 18.6088 39.6457C18.4255 39.829 18.2116 39.9207 17.9672 39.9207C17.7227 39.9207 17.5088 39.829 17.3255 39.6457C15.5227 37.7512 14.1401 35.8186 13.1776 33.8477C12.2151 31.8769 11.7338 29.547 11.7338 26.8582C11.7338 24.0776 12.7422 21.7325 14.7588 19.8227C16.7755 17.913 19.2047 16.9582 22.0463 16.9582ZM22.0005 25.9415C22.2755 25.9415 22.497 26.0332 22.6651 26.2165C22.8331 26.3998 22.9172 26.6137 22.9172 26.8582C22.9172 29.1498 23.7422 31.029 25.3922 32.4957C27.0422 33.9623 28.9672 34.6957 31.1672 34.6957C31.3505 34.6957 31.6102 34.6804 31.9463 34.6498C32.2824 34.6193 32.6338 34.5734 33.0005 34.5123C33.2755 34.4512 33.5123 34.4894 33.7109 34.6269C33.9095 34.7644 34.0394 34.9707 34.1005 35.2457C34.1616 35.4901 34.1158 35.704 33.963 35.8873C33.8102 36.0707 33.6116 36.1929 33.3672 36.254C32.8172 36.4068 32.3359 36.4908 31.9234 36.5061C31.5109 36.5214 31.2588 36.529 31.1672 36.529C28.4477 36.529 26.0873 35.6123 24.0859 33.779C22.0845 31.9457 21.0838 29.6387 21.0838 26.8582C21.0838 26.6137 21.1679 26.3998 21.3359 26.2165C21.504 26.0332 21.7255 25.9415 22.0005 25.9415Z" stroke="black" stroke-width="4" mask="url(#path-2-outside-1_0_4)"/>
</g>
</g>
</g>
<defs>
<filter id="filter0_d_0_4" x="3.55469" y="1.71232" width="39.0935" height="44.6004" filterUnits="userSpaceOnUse" color-interpolation-filters="sRGB">
<feFlood flood-opacity="0" result="BackgroundImageFix"/>
<feColorMatrix in="SourceAlpha" type="matrix" values="0 0 0 0 0 0 0 0 0 0 0 0 0 0 0 0 0 0 127 0" result="hardAlpha"/>
<feOffset dx="2" dy="4"/>
<feComposite in2="hardAlpha" operator="out"/>
<feColorMatrix type="matrix" values="0 0 0 0 0 0 0 0 0 0 0 0 0 0 0 0 0 0 1 0"/>
<feBlend mode="normal" in2="BackgroundImageFix" result="effect1_dropShadow_0_4"/>
<feBlend mode="normal" in="SourceGraphic" in2="effect1_dropShadow_0_4" result="shape"/>
</filter>
</defs>
</svg>
